<svg version="1" xmlns="http://www.w3.org/2000/svg" width="682.667" height="682.667" viewBox="0 0 512.000000 512.000000"><path d="M116.8 58c-1.6 1.7-2.8 3.3-2.8 3.6 0 .3-.6 1.2-1.2 1.9-3.1 3.5-3.8 4.5-3.1 4.5.4 0 .3.4-.3.8-1.8 1.2-6.4 11.8-7.5 17.4-2.1 10.1-2.7 19.5-1.4 24.8.3 1.4.8 4 1.1 5.9.3 1.9 1 4.6 1.6 6 3 7.7 3 7.8-2.2 13.4-2.6 2.9-5.9 6.5-7.1 8.2-1.3 1.6-2.7 3.1-3.1 3.3-.5.2-.8 1-.8 1.8s-.3 1.4-.7 1.4c-.5 0-2.1 2.1-3.8 4.8-1.6 2.6-3.2 4.9-3.6 5.2-.3.3-2.3 3.6-4.4 7.5-2.1 3.8-4.1 7.4-4.5 8-1.1 1.5-8 17.5-9.5 22-.7 2.2-2.2 7.4-3.3 11.5-4.4 17.1-5 20.4-5.7 35-.2 4.7-.5 8.7-.6 9-.2.7-.2.3.6 12 1 13.9 1.8 20.2 3.2 24 .3.8.7 2.6.8 4 .2 2.8 4.9 18 7.5 24.5 4.1 10.4 17.2 34.5 19.2 35.3.4.2.8.8.8 1.4 0 .5.6 1.5 1.3 2.2.6.8 1.9 2.3 2.7 3.6 2.2 3.1 6.1 7.9 9 11 2.2 2.2 2.5 3.4 2.4 9-.1 3.6-.3 6.9-.4 7.5-.1.5-.2 1.2 0 1.5.1.3.3 6.1.5 13 .5 19.6 1.5 32.4 2.8 33.6.4.4.7 2.5.7 4.6 0 2.2.7 5.2 1.5 6.8.9 1.7 1.5 3.2 1.4 3.6-.1.3.9 1.7 2 3l2.2 2.5 34.9-.3c19.3-.2 35-.1 35 .2 0 .4 18.4.4 20-.1.3 0 2.5 0 4.8.1 2.4.1 5.6-.3 7.1-1 3.2-1.3 6.1-6.7 6.8-12.5.5-4.3 1.1-5.8 2.1-5.1 1.9 1.1 16.5 2 34.2 2 17.8 0 23.9-.4 31-1.8 2.4-.5 2.6-.2 4.2 6.5 1 4 2.8 8.1 4.1 9.5l2.3 2.5 24.7-.3c13.6-.2 24.7.1 24.7.5 0 .5.5.5 1 .2.6-.3 12.4-.6 26.4-.5l25.4.1 2.1-2.9c1.1-1.6 1.8-3.2 1.4-3.6-.3-.3-.2-.6.4-.6.6 0 1.4-1.7 1.9-3.8.4-2 .8-3.9.9-4.2 0-.3.4-2.7.9-5.3.4-2.7.9-5.9 1.2-7 .7-3.6 1.6-23.2 1.7-39.7l.2-15.5 4.3-4.5c2.3-2.5 4.2-4.8 4.2-5.3 0-.6.8-1.6 5.5-6.8.8-.9 1.5-1.9 1.5-2.2 0-.6 6.8-10.6 8-11.7.3-.3.6-1.4.8-2.4.2-1 .9-2.5 1.7-3.2.7-.7 2.3-3.8 3.6-6.9 1.2-3 2.6-5.5 3.1-5.5.4 0 .7-.3.6-.8-.3-1.4 1.4-6.2 2.3-6.2.5 0 .8-.3.7-.8-.1-.4 1.2-5.4 3.1-11 1.8-5.7 3.4-11.3 3.5-12.5.2-1.2.6-3.1.9-4.2 2.3-7.5 3.2-18.2 3-36-.2-20.9-.4-24.5-1.2-24.5-.3 0-.7-1.2-.7-2.8-.1-1.5-.5-4.3-.8-6.2-.4-1.9-.9-4.2-1-5-.2-.8-.6-2.2-.8-3-.3-.8-1.1-3.5-1.8-6s-2-6.5-2.9-9c-.9-2.5-1.6-4.7-1.7-5-1-4.9-17.1-34.9-20.4-38-.3-.3-2.3-3-4.5-6s-4.5-6.1-5.1-6.7c-.9-1-1-2-.1-4.3.6-1.6 1.5-3 1.9-3 .4 0 .8-.8.8-1.8 0-.9.7-2.9 1.4-4.4.8-1.6 1.7-4.4 2.1-6.4.3-2.1.8-4.6 1.1-5.8 1-4.3 1.1-11 .1-15-.5-2.3-1-4.8-1.1-5.6-1.2-8.8-13.5-28.3-20.1-31.7-2-1.1-14.8-1-19.5.1-1.4.3-3.8.8-5.5 1.2-4.5.9-21.5 9.2-25.7 12.6-2.1 1.6-3.8 2.7-3.8 2.4 0-.3-1.7 1-3.7 2.9-3.5 3.2-3.8 3.3-6.4 1.9-1.6-.8-3.6-1.5-4.6-1.7-1-.1-2.4-.6-3.1-1.1-.8-.4-5.7-2.1-11-3.6-5.3-1.6-10.4-3.1-11.2-3.4-.8-.3-3.1-.7-5-1-1.9-.3-6-1-9-1.7-17-3.4-45.9-4.3-63.5-2-14.7 2-15.9 2.2-17.5 2.8-.8.3-3.3.8-5.4 1-2.2.2-4.8.9-5.7 1.4-1 .5-3.5 1.2-5.6 1.5-2.1.3-4.2 1-4.7 1.5-1.7 1.6-4.6 1-7-1.6-1.3-1.4-2.8-2.5-3.4-2.5-.6 0-1.2-.4-1.4-.8-.6-1.4-6.6-5.2-8.2-5.2-.9 0-1.6-.4-1.6-.9 0-.8-1-1.2-5.5-2.6-.5-.2-2.8-1.1-5-2.1s-4.9-1.8-6-1.9c-1.1-.1-2.9-.6-4-1.2-1.9-1-11.2-2.8-12.7-2.5-.5.1-.8-.2-.8-.6 0-.5-1.5-.9-3.2-.9-1.8 0-5.8-.3-8.8-.7-5.2-.6-5.6-.5-8.2 2.4z"/></svg>