<?xml version="1.0" encoding="UTF-8"?>
<svg xmlns="http://www.w3.org/2000/svg" xmlns:xlink="http://www.w3.org/1999/xlink" xml:space="preserve" viewBox="0 0 100 100" y="0" x="0" width="800px" height="800px">
<g style="transform-origin:50% 50%;transform:rotate(0deg) scale(1, 1)"><path fill="#f8b26a" d="M44.322 44.703v.356c0-.12.012-.238.03-.356h-.03z" style="fill:rgb(253, 200, 35)"></path></g>
<g><path fill="#f8b26a" d="M64.309 44.703c.018.118.03.236.03.356v-.356h-.03z" style="fill:rgb(253, 200, 35)"></path></g>
<g><path fill="#f8b26a" d="M54.33 49.873c-4.344 0-8.039-1.331-9.424-3.191-.377-.507-.584-1.053-.584-1.623v3.245c0 2.658 4.481 4.814 10.009 4.814s10.009-2.155 10.009-4.814v-3.245c0 .569-.207 1.115-.584 1.623-1.386 1.86-5.082 3.191-9.426 3.191z" style="fill:rgb(253, 200, 35)"></path></g>
<path fill="#f5e6c8" d="M64.309 44.703c-.379-2.492-4.7-4.458-9.978-4.458s-9.599 1.966-9.978 4.458c-.018.118-.03.236-.03.356 0 .569.207 1.115.584 1.623 1.385 1.86 5.081 3.191 9.424 3.191s8.039-1.331 9.424-3.191c.377-.507.584-1.053.584-1.623 0-.12-.012-.238-.03-.356z" style="fill:rgb(236, 166, 17)"></path>
<g><g><path fill="#f8b26a" d="M44.322 44.703v.356c0-.12.012-.238.03-.356h-.03z" style="fill:rgb(253, 200, 35)"></path></g>
<g><path fill="#f8b26a" d="M64.309 44.703c.018.118.03.236.03.356v-.356h-.03z" style="fill:rgb(253, 200, 35)"></path></g>
<g><path fill="#f8b26a" d="M54.33 49.873c-4.344 0-8.039-1.331-9.424-3.191-.377-.507-.584-1.053-.584-1.623v3.245c0 2.658 4.481 4.814 10.009 4.814s10.009-2.155 10.009-4.814v-3.245c0 .569-.207 1.115-.584 1.623-1.386 1.86-5.082 3.191-9.426 3.191z" style="fill:rgb(253, 200, 35)"></path></g></g>
<g><path fill="#f5e6c8" d="M64.309 44.703c-.379-2.492-4.7-4.458-9.978-4.458s-9.599 1.966-9.978 4.458c-.018.118-.03.236-.03.356 0 .569.207 1.115.584 1.623 1.385 1.86 5.081 3.191 9.424 3.191s8.039-1.331 9.424-3.191c.377-.507.584-1.053.584-1.623 0-.12-.012-.238-.03-.356z" style="fill:rgb(236, 166, 17)"></path></g>
<g><g><g><path fill="#f8b26a" d="M44.322 39.56v.356c0-.12.012-.238.03-.356h-.03z" style="fill:rgb(253, 200, 35)"></path></g>
<g><path fill="#f8b26a" d="M64.309 39.56c.018.118.03.236.03.356v-.356h-.03z" style="fill:rgb(253, 200, 35)"></path></g>
<g><path fill="#f8b26a" d="M54.33 44.729c-4.344 0-8.039-1.331-9.424-3.191-.377-.507-.584-1.053-.584-1.623v3.245c0 2.658 4.481 4.814 10.009 4.814S64.34 45.819 64.34 43.16v-3.245c0 .569-.207 1.115-.584 1.623-1.386 1.86-5.082 3.191-9.426 3.191z" style="fill:rgb(253, 200, 35)"></path></g></g>
<path fill="#f5e6c8" d="M64.309 39.56c-.379-2.492-4.7-4.458-9.978-4.458s-9.599 1.966-9.978 4.458c-.018.118-.03.236-.03.356 0 .569.207 1.115.584 1.623 1.385 1.86 5.081 3.191 9.424 3.191s8.039-1.331 9.424-3.191c.377-.507.584-1.053.584-1.623 0-.12-.012-.239-.03-.356z" style="fill:rgb(236, 166, 17)"></path></g>
<g><g><g><path fill="#f8b26a" d="M30.36 57.62v.395c0-.133.014-.265.033-.395h-.033z" style="fill:rgb(253, 200, 35)"></path></g>
<g><path fill="#f8b26a" d="M52.566 57.62c.02.131.033.262.033.395v-.395h-.033z" style="fill:rgb(253, 200, 35)"></path></g>
<g><path fill="#f8b26a" d="M41.48 63.364c-4.826 0-8.932-1.479-10.471-3.545-.419-.563-.649-1.17-.649-1.803v3.605c0 2.954 4.979 5.348 11.12 5.348s11.12-2.394 11.12-5.348v-3.605c0 .633-.23 1.239-.649 1.803-1.539 2.066-5.645 3.545-10.471 3.545z" style="fill:rgb(253, 200, 35)"></path></g></g>
<path fill="#f5e6c8" d="M52.566 57.62c-.421-2.769-5.222-4.953-11.087-4.953s-10.666 2.184-11.087 4.953a2.61 2.61 0 0 0-.033.395c0 .633.23 1.239.649 1.803 1.538 2.067 5.645 3.545 10.471 3.545s8.932-1.479 10.471-3.545c.419-.563.649-1.17.649-1.803a2.487 2.487 0 0 0-.033-.395z" style="fill:rgb(236, 166, 17)"></path>
<g><g><path fill="#f8b26a" d="M30.36 57.62v.395c0-.133.014-.265.033-.395h-.033z" style="fill:rgb(253, 200, 35)"></path></g>
<g><path fill="#f8b26a" d="M52.566 57.62c.02.131.033.262.033.395v-.395h-.033z" style="fill:rgb(253, 200, 35)"></path></g>
<g><path fill="#f8b26a" d="M41.48 63.364c-4.826 0-8.932-1.479-10.471-3.545-.419-.563-.649-1.17-.649-1.803v3.605c0 2.954 4.979 5.348 11.12 5.348s11.12-2.394 11.12-5.348v-3.605c0 .633-.23 1.239-.649 1.803-1.539 2.066-5.645 3.545-10.471 3.545z" style="fill:rgb(253, 200, 35)"></path></g></g>
<path fill="#f5e6c8" d="M52.566 57.62c-.421-2.769-5.222-4.953-11.087-4.953s-10.666 2.184-11.087 4.953a2.61 2.61 0 0 0-.033.395c0 .633.23 1.239.649 1.803 1.538 2.067 5.645 3.545 10.471 3.545s8.932-1.479 10.471-3.545c.419-.563.649-1.17.649-1.803a2.487 2.487 0 0 0-.033-.395z" style="fill:rgb(236, 166, 17)"></path></g>
<g><g><g><path fill="#f8b26a" d="M30.36 51.905v.395c0-.133.014-.265.033-.395h-.033z" style="fill:rgb(253, 200, 35)"></path></g>
<g><path fill="#f8b26a" d="M52.566 51.905c.02.131.033.262.033.395v-.395h-.033z" style="fill:rgb(253, 200, 35)"></path></g>
<g><path fill="#f8b26a" d="M41.48 57.649c-4.826 0-8.932-1.479-10.471-3.545-.419-.563-.649-1.17-.649-1.803v3.605c0 2.954 4.979 5.348 11.12 5.348S52.6 58.86 52.6 55.906v-3.605c0 .633-.23 1.239-.649 1.803-1.539 2.066-5.645 3.545-10.471 3.545z" style="fill:rgb(253, 200, 35)"></path></g></g>
<path fill="#f5e6c8" d="M52.566 51.905c-.421-2.769-5.222-4.953-11.087-4.953s-10.666 2.184-11.087 4.953a2.61 2.61 0 0 0-.033.395c0 .633.23 1.239.649 1.803 1.538 2.067 5.645 3.545 10.471 3.545s8.932-1.479 10.471-3.545c.419-.563.649-1.17.649-1.803a2.497 2.497 0 0 0-.033-.395z" style="fill:rgb(236, 166, 17)"></path></g>
<g><g><g><path fill="#f8b26a" d="M30.36 46.191v.395c0-.133.014-.265.033-.395h-.033z" style="fill:rgb(253, 200, 35)"></path></g>
<g><path fill="#f8b26a" d="M52.566 46.191c.02.131.033.262.033.395v-.395h-.033z" style="fill:rgb(253, 200, 35)"></path></g>
<g><path fill="#f8b26a" d="M41.48 51.934c-4.826 0-8.932-1.479-10.471-3.545-.419-.563-.649-1.17-.649-1.803v3.605c0 2.954 4.979 5.348 11.12 5.348s11.12-2.394 11.12-5.348v-3.605c0 .633-.23 1.239-.649 1.803-1.539 2.066-5.645 3.545-10.471 3.545z" style="fill:rgb(253, 200, 35)"></path></g></g>
<path fill="#f5e6c8" d="M52.566 46.191c-.421-2.769-5.222-4.953-11.087-4.953s-10.666 2.184-11.087 4.953a2.61 2.61 0 0 0-.033.395c0 .633.23 1.239.649 1.803 1.538 2.067 5.645 3.545 10.471 3.545s8.932-1.479 10.471-3.545c.419-.563.649-1.17.649-1.803a2.477 2.477 0 0 0-.033-.395z" style="fill:rgb(236, 166, 17)"></path></g>
<g><g><g><path fill="#f8b26a" d="M30.36 40.476v.395c0-.133.014-.265.033-.395h-.033z" style="fill:rgb(253, 200, 35)"></path></g>
<g><path fill="#f8b26a" d="M52.566 40.476c.02.131.033.262.033.395v-.395h-.033z" style="fill:rgb(253, 200, 35)"></path></g>
<g><path fill="#f8b26a" d="M41.48 46.219c-4.826 0-8.932-1.479-10.471-3.545-.419-.563-.649-1.17-.649-1.803v3.605c0 2.954 4.979 5.348 11.12 5.348S52.6 47.43 52.6 44.476v-3.605c0 .633-.23 1.239-.649 1.803-1.539 2.066-5.645 3.545-10.471 3.545z" style="fill:rgb(253, 200, 35)"></path></g></g>
<path fill="#f5e6c8" d="M52.566 40.476c-.421-2.769-5.222-4.953-11.087-4.953s-10.666 2.184-11.087 4.953a2.61 2.61 0 0 0-.033.395c0 .633.23 1.239.649 1.803 1.538 2.067 5.645 3.545 10.471 3.545s8.932-1.479 10.471-3.545c.419-.563.649-1.17.649-1.803a2.477 2.477 0 0 0-.033-.395z" style="fill:rgb(236, 166, 17)"></path></g>
<g><g><g><path fill="#f8b26a" d="M30.36 34.761v.395c0-.133.014-.265.033-.395h-.033z" style="fill:rgb(253, 200, 35)"></path></g>
<g><path fill="#f8b26a" d="M52.566 34.761c.02.131.033.262.033.395v-.395h-.033z" style="fill:rgb(253, 200, 35)"></path></g>
<g><path fill="#f8b26a" d="M41.48 40.504c-4.826 0-8.932-1.479-10.471-3.545-.419-.563-.649-1.17-.649-1.803v3.605c0 2.954 4.979 5.348 11.12 5.348s11.12-2.394 11.12-5.348v-3.605c0 .633-.23 1.239-.649 1.803-1.539 2.066-5.645 3.545-10.471 3.545z" style="fill:rgb(253, 200, 35)"></path></g></g>
<path fill="#f5e6c8" d="M52.566 34.761c-.421-2.769-5.222-4.953-11.087-4.953s-10.666 2.184-11.087 4.953a2.61 2.61 0 0 0-.033.395c0 .633.23 1.239.649 1.803 1.538 2.067 5.645 3.545 10.471 3.545s8.932-1.479 10.471-3.545c.419-.563.649-1.17.649-1.803a2.487 2.487 0 0 0-.033-.395z" style="fill:rgb(236, 166, 17)"></path></g>
<g><g><g><path fill="#f8b26a" d="M30.36 29.046v.395c0-.133.014-.265.033-.395h-.033z" style="fill:rgb(253, 200, 35)"></path></g>
<g><path fill="#f8b26a" d="M52.566 29.046c.02.131.033.262.033.395v-.395h-.033z" style="fill:rgb(253, 200, 35)"></path></g>
<g><path fill="#f8b26a" d="M41.48 34.79c-4.826 0-8.932-1.479-10.471-3.545-.419-.563-.649-1.17-.649-1.803v3.605c0 2.954 4.979 5.348 11.12 5.348S52.6 36 52.6 33.047v-3.605c0 .633-.23 1.239-.649 1.803-1.539 2.066-5.645 3.545-10.471 3.545z" style="fill:rgb(253, 200, 35)"></path></g></g>
<path fill="#f5e6c8" d="M52.566 29.046c-.421-2.769-5.222-4.953-11.087-4.953s-10.666 2.184-11.087 4.953a2.61 2.61 0 0 0-.033.395c0 .633.23 1.239.649 1.803 1.538 2.067 5.645 3.545 10.471 3.545s8.932-1.479 10.471-3.545c.419-.563.649-1.17.649-1.803a2.487 2.487 0 0 0-.033-.395z" style="fill:rgb(236, 166, 17)"></path></g>
<g><g><g><path fill="#f8b26a" d="M7.5 57.62v.395c0-.133.014-.265.033-.395H7.5z" style="fill:rgb(253, 200, 35)"></path></g>
<g><path fill="#f8b26a" d="M29.707 57.62c.02.131.033.262.033.395v-.395h-.033z" style="fill:rgb(253, 200, 35)"></path></g>
<g><path fill="#f8b26a" d="M18.62 63.364c-4.826 0-8.932-1.479-10.471-3.545-.419-.564-.649-1.171-.649-1.804v3.605c0 2.954 4.979 5.348 11.12 5.348s11.12-2.394 11.12-5.348v-3.605c0 .633-.23 1.239-.649 1.803-1.538 2.067-5.645 3.546-10.471 3.546z" style="fill:rgb(253, 200, 35)"></path></g></g>
<path fill="#f5e6c8" d="M29.707 57.62c-.421-2.769-5.222-4.953-11.087-4.953S7.955 54.851 7.534 57.62a2.61 2.61 0 0 0-.034.395c0 .633.23 1.239.649 1.803 1.538 2.067 5.645 3.545 10.471 3.545s8.932-1.479 10.471-3.545c.419-.563.649-1.17.649-1.803a2.61 2.61 0 0 0-.033-.395z" style="fill:rgb(236, 166, 17)"></path>
<path fill="#f5e6c8" d="M29.707 57.62c-.421-2.769-5.222-4.953-11.087-4.953S7.955 54.851 7.534 57.62a2.61 2.61 0 0 0-.034.395c0 .633.23 1.239.649 1.803 1.538 2.067 5.645 3.545 10.471 3.545s8.932-1.479 10.471-3.545c.419-.563.649-1.17.649-1.803a2.61 2.61 0 0 0-.033-.395z" style="fill:rgb(236, 166, 17)"></path></g>
<g><g><g><path fill="#f8b26a" d="M7.5 51.905v.395c0-.133.014-.265.033-.395H7.5z" style="fill:rgb(253, 200, 35)"></path></g>
<g><path fill="#f8b26a" d="M29.707 51.905c.02.131.033.262.033.395v-.395h-.033z" style="fill:rgb(253, 200, 35)"></path></g>
<g><path fill="#f8b26a" d="M18.62 57.649c-4.826 0-8.932-1.479-10.471-3.545-.419-.564-.649-1.171-.649-1.803v3.605c0 2.954 4.979 5.348 11.12 5.348s11.12-2.394 11.12-5.348v-3.605c0 .633-.23 1.239-.649 1.803-1.538 2.066-5.645 3.545-10.471 3.545z" style="fill:rgb(253, 200, 35)"></path></g></g>
<path fill="#f5e6c8" d="M29.707 51.905c-.421-2.769-5.222-4.953-11.087-4.953S7.955 49.136 7.534 51.905c-.02.131-.034.263-.034.396 0 .633.23 1.239.649 1.803 1.538 2.067 5.645 3.545 10.471 3.545s8.932-1.479 10.471-3.545c.419-.563.649-1.17.649-1.803 0-.133-.013-.265-.033-.396z" style="fill:rgb(236, 166, 17)"></path></g>
<g><g><g><path fill="#f8b26a" d="M7.5 46.191v.395c0-.133.014-.265.033-.395H7.5z" style="fill:rgb(253, 200, 35)"></path></g>
<g><path fill="#f8b26a" d="M29.707 46.191c.02.131.033.262.033.395v-.395h-.033z" style="fill:rgb(253, 200, 35)"></path></g>
<g><path fill="#f8b26a" d="M18.62 51.934c-4.826 0-8.932-1.479-10.471-3.545-.419-.564-.649-1.17-.649-1.803v3.605c0 2.954 4.979 5.348 11.12 5.348s11.12-2.394 11.12-5.348v-3.605c0 .633-.23 1.239-.649 1.803-1.538 2.066-5.645 3.545-10.471 3.545z" style="fill:rgb(253, 200, 35)"></path></g></g>
<path fill="#f5e6c8" d="M29.707 46.191c-.421-2.769-5.222-4.953-11.087-4.953S7.955 43.422 7.534 46.191a2.6 2.6 0 0 0-.034.395c0 .633.23 1.239.649 1.803 1.538 2.067 5.645 3.545 10.471 3.545s8.932-1.479 10.471-3.545c.419-.563.649-1.17.649-1.803 0-.133-.013-.265-.033-.395z" style="fill:rgb(236, 166, 17)"></path></g>
<g><g><g><path fill="#f8b26a" d="M7.5 40.476v.395c0-.133.014-.265.033-.395H7.5z" style="fill:rgb(253, 200, 35)"></path></g>
<g><path fill="#f8b26a" d="M29.707 40.476c.02.131.033.262.033.395v-.395h-.033z" style="fill:rgb(253, 200, 35)"></path></g>
<g><path fill="#f8b26a" d="M18.62 46.219c-4.826 0-8.932-1.479-10.471-3.545-.419-.564-.649-1.17-.649-1.803v3.605c0 2.954 4.979 5.348 11.12 5.348s11.12-2.394 11.12-5.348v-3.605c0 .633-.23 1.239-.649 1.803-1.538 2.066-5.645 3.545-10.471 3.545z" style="fill:rgb(253, 200, 35)"></path></g></g>
<path fill="#f5e6c8" d="M29.707 40.476c-.421-2.769-5.222-4.953-11.087-4.953S7.955 37.707 7.534 40.476a2.6 2.6 0 0 0-.034.395c0 .633.23 1.239.649 1.803 1.538 2.067 5.645 3.545 10.471 3.545s8.932-1.479 10.471-3.545c.419-.563.649-1.17.649-1.803 0-.133-.013-.265-.033-.395z" style="fill:rgb(236, 166, 17)"></path></g>
<g><g><g><path fill="#f8b26a" d="M53.219 57.62v.395c0-.133.014-.265.033-.395h-.033z" style="fill:rgb(253, 200, 35)"></path></g>
<g><path fill="#f8b26a" d="M75.426 57.62c.02.131.033.262.033.395v-.395h-.033z" style="fill:rgb(253, 200, 35)"></path></g>
<g><path fill="#f8b26a" d="M64.339 63.364c-4.826 0-8.932-1.479-10.471-3.545-.419-.563-.649-1.17-.649-1.803v3.605c0 2.954 4.979 5.348 11.12 5.348s11.12-2.394 11.12-5.348v-3.605c0 .633-.23 1.239-.649 1.803-1.539 2.066-5.645 3.545-10.471 3.545z" style="fill:rgb(253, 200, 35)"></path></g></g>
<path fill="#f5e6c8" d="M75.426 57.62c-.421-2.769-5.222-4.953-11.087-4.953s-10.666 2.184-11.087 4.953a2.61 2.61 0 0 0-.033.395c0 .633.23 1.239.649 1.803 1.538 2.067 5.645 3.545 10.471 3.545s8.932-1.479 10.471-3.545c.419-.563.649-1.17.649-1.803 0-.133-.014-.264-.033-.395z" style="fill:rgb(236, 166, 17)"></path>
<g><g><path fill="#f8b26a" d="M53.219 57.62v.395c0-.133.014-.265.033-.395h-.033z" style="fill:rgb(253, 200, 35)"></path></g>
<g><path fill="#f8b26a" d="M75.426 57.62c.02.131.033.262.033.395v-.395h-.033z" style="fill:rgb(253, 200, 35)"></path></g>
<g><path fill="#f8b26a" d="M64.339 63.364c-4.826 0-8.932-1.479-10.471-3.545-.419-.563-.649-1.17-.649-1.803v3.605c0 2.954 4.979 5.348 11.12 5.348s11.12-2.394 11.12-5.348v-3.605c0 .633-.23 1.239-.649 1.803-1.539 2.066-5.645 3.545-10.471 3.545z" style="fill:rgb(253, 200, 35)"></path></g></g>
<path fill="#f5e6c8" d="M75.426 57.62c-.421-2.769-5.222-4.953-11.087-4.953s-10.666 2.184-11.087 4.953a2.61 2.61 0 0 0-.033.395c0 .633.23 1.239.649 1.803 1.538 2.067 5.645 3.545 10.471 3.545s8.932-1.479 10.471-3.545c.419-.563.649-1.17.649-1.803 0-.133-.014-.264-.033-.395z" style="fill:rgb(236, 166, 17)"></path></g>
<g><g><g><path fill="#f8b26a" d="M53.219 51.905v.395c0-.133.014-.265.033-.395h-.033z" style="fill:rgb(253, 200, 35)"></path></g>
<g><path fill="#f8b26a" d="M75.426 51.905c.02.131.033.262.033.395v-.395h-.033z" style="fill:rgb(253, 200, 35)"></path></g>
<g><path fill="#f8b26a" d="M64.339 57.649c-4.826 0-8.932-1.479-10.471-3.545-.419-.563-.649-1.17-.649-1.803v3.605c0 2.954 4.979 5.348 11.12 5.348s11.12-2.394 11.12-5.348v-3.605c0 .633-.23 1.239-.649 1.803-1.539 2.066-5.645 3.545-10.471 3.545z" style="fill:rgb(253, 200, 35)"></path></g></g>
<path fill="#f5e6c8" d="M75.426 51.905c-.421-2.769-5.222-4.953-11.087-4.953s-10.666 2.184-11.087 4.953a2.61 2.61 0 0 0-.033.395c0 .633.23 1.239.649 1.803 1.538 2.067 5.645 3.545 10.471 3.545s8.932-1.479 10.471-3.545c.419-.563.649-1.17.649-1.803 0-.132-.014-.264-.033-.395z" style="fill:rgb(236, 166, 17)"></path></g>
<g><g><g><path fill="#f8b26a" d="M72.468 50.912l-.175.354c.059-.119.13-.231.205-.339l-.03-.015z" style="fill:rgb(253, 200, 35)"></path></g>
<g><path fill="#f8b26a" d="M92.367 60.769c-.04.126-.086.25-.145.369l.175-.354-.03-.015z" style="fill:rgb(253, 200, 35)"></path></g>
<g><path fill="#f8b26a" d="M79.883 60.994c-4.324-2.142-7.348-5.29-7.809-7.825-.126-.691-.062-1.337.218-1.904l-1.6 3.231c-1.311 2.647 2.087 7.002 7.59 9.729 5.503 2.726 11.027 2.791 12.338.144l1.6-3.231c-.281.567-.756 1.008-1.382 1.327-2.294 1.169-6.63.672-10.955-1.471z" style="fill:rgb(253, 200, 35)"></path></g></g>
<path fill="#f5e6c8" d="M92.367 60.769c.852-2.668-2.481-6.756-7.736-9.36-5.255-2.603-10.527-2.777-12.133-.483-.076.108-.146.22-.205.339-.281.567-.344 1.213-.218 1.904.461 2.535 3.484 5.683 7.809 7.825 4.324 2.142 8.661 2.64 10.956 1.471.626-.319 1.101-.76 1.382-1.327.059-.119.105-.243.145-.369z" style="fill:rgb(236, 166, 17)"></path></g>
<g><g><g><path fill="#f8b26a" d="M18.62 69.05v.395c0-.133.014-.265.033-.395h-.033z" style="fill:rgb(253, 200, 35)"></path></g>
<g><path fill="#f8b26a" d="M40.827 69.05c.02.131.033.262.033.395v-.395h-.033z" style="fill:rgb(253, 200, 35)"></path></g>
<g><path fill="#f8b26a" d="M29.741 74.793c-4.826 0-8.932-1.479-10.471-3.545-.419-.563-.649-1.17-.649-1.803v3.605c0 2.954 4.979 5.348 11.12 5.348s11.12-2.394 11.12-5.348v-3.605c0 .633-.23 1.239-.649 1.803-1.539 2.066-5.646 3.545-10.471 3.545z" style="fill:rgb(253, 200, 35)"></path></g></g>
<path fill="#f5e6c8" d="M40.827 69.05c-.421-2.769-5.222-4.953-11.087-4.953s-10.666 2.184-11.087 4.953a2.61 2.61 0 0 0-.033.395c0 .633.23 1.239.649 1.803 1.538 2.067 5.645 3.545 10.471 3.545s8.932-1.479 10.471-3.545c.419-.563.649-1.17.649-1.803a2.487 2.487 0 0 0-.033-.395z" style="fill:rgb(236, 166, 17)"></path></g>
<g><g><g><path fill="#f8b26a" d="M15.371 37.745l.276.283a2.625 2.625 0 0 1-.252-.306l-.024.023z" style="fill:rgb(253, 200, 35)"></path></g>
<g><path fill="#f8b26a" d="M31.263 22.233c.105.08.207.164.3.26l-.276-.283-.024.023z" style="fill:rgb(253, 200, 35)"></path></g>
<g><path fill="#f8b26a" d="M27.341 34.087c-3.454 3.371-7.425 5.181-9.97 4.777-.694-.11-1.282-.384-1.724-.836l2.518 2.58c2.063 2.114 7.298.35 11.693-3.94s6.285-9.481 4.222-11.595l-2.518-2.58c.442.453.701 1.048.795 1.744.343 2.553-1.563 6.479-5.016 9.85z" style="fill:rgb(253, 200, 35)"></path></g></g>
<path fill="#f5e6c8" d="M31.263 22.233c-2.235-1.687-7.196.103-11.393 4.2s-6.107 9.013-4.474 11.288c.077.107.159.211.252.306.442.453 1.03.726 1.724.836 2.544.404 6.516-1.406 9.97-4.777s5.359-7.298 5.017-9.851c-.093-.696-.353-1.291-.795-1.744a2.948 2.948 0 0 0-.301-.258z" style="fill:rgb(236, 166, 17)"></path></g>
<g><g><g><path fill="#f8b26a" d="M38.382 62.539l-.175.354c.059-.119.13-.231.205-.339l-.03-.015z" style="fill:rgb(253, 200, 35)"></path></g>
<g><path fill="#f8b26a" d="M58.281 72.396c-.04.126-.086.25-.145.369l.175-.354-.03-.015z" style="fill:rgb(253, 200, 35)"></path></g>
<g><path fill="#f8b26a" d="M45.797 72.622c-4.324-2.142-7.348-5.29-7.809-7.825-.126-.691-.062-1.337.218-1.904l-1.6 3.231c-1.311 2.647 2.087 7.002 7.59 9.729 5.503 2.726 11.027 2.791 12.338.144l1.6-3.231c-.281.567-.756 1.008-1.382 1.327-2.294 1.169-6.631.671-10.955-1.471z" style="fill:rgb(253, 200, 35)"></path></g></g>
<path fill="#f5e6c8" d="M58.281 72.396c.852-2.668-2.481-6.756-7.736-9.36s-10.527-2.777-12.133-.483c-.076.108-.146.22-.205.339-.281.567-.344 1.213-.218 1.904.461 2.535 3.484 5.683 7.809 7.825 4.324 2.142 8.661 2.64 10.956 1.471.626-.319 1.101-.76 1.382-1.327.059-.119.105-.243.145-.369z" style="fill:rgb(236, 166, 17)"></path></g></svg>
